<svg width="43" height="42" viewBox="0 0 43 42" fill="none" xmlns="http://www.w3.org/2000/svg">
<path d="M10.75 7.875C9.35761 7.875 8.02226 8.42812 7.03769 9.41269C6.05312 10.3973 5.5 11.7326 5.5 13.125V13.6526L21.25 22.134L37 13.6553V13.125C37 11.7326 36.4469 10.3973 35.4623 9.41269C34.4777 8.42812 33.1424 7.875 31.75 7.875H10.75ZM37 16.6346L21.8721 24.78C21.6809 24.8829 21.4672 24.9368 21.25 24.9368C21.0328 24.9368 20.8191 24.8829 20.6279 24.78L5.5 16.6346V28.875C5.5 30.2674 6.05312 31.6027 7.03769 32.5873C8.02226 33.5719 9.35761 34.125 10.75 34.125H31.75C33.1424 34.125 34.4777 33.5719 35.4623 32.5873C36.4469 31.6027 37 30.2674 37 28.875V16.6346Z" fill="#B50000"/>
</svg>
