<svg width="39" height="38" viewBox="0 0 39 38" fill="none" xmlns="http://www.w3.org/2000/svg">
<path d="M24.3918 25.5075L27.0518 22.8475C27.4101 22.4937 27.8634 22.2515 28.3566 22.1503C28.8499 22.0492 29.3619 22.0933 29.8306 22.2775L33.0724 23.5719C33.546 23.7642 33.9521 24.0923 34.2395 24.5149C34.5269 24.9376 34.6828 25.4358 34.6874 25.9469V31.8844C34.6847 32.2321 34.6116 32.5756 34.4726 32.8943C34.3336 33.213 34.1315 33.5002 33.8785 33.7388C33.6256 33.9773 33.327 34.1622 33.0007 34.2823C32.6744 34.4024 32.3272 34.4552 31.9799 34.4375C9.26307 33.0244 4.67932 13.7869 3.81245 6.42442C3.7722 6.06287 3.80897 5.6969 3.92033 5.35058C4.03168 5.00426 4.21511 4.68544 4.45853 4.4151C4.70195 4.14476 4.99985 3.92902 5.33263 3.78207C5.66542 3.63513 6.02554 3.56032 6.38932 3.56255H12.1249C12.6368 3.56406 13.1364 3.71867 13.5597 4.00647C13.9829 4.29428 14.3104 4.70212 14.4999 5.17755L15.7943 8.41942C15.9846 8.88619 16.0332 9.39869 15.9339 9.89289C15.8346 10.3871 15.592 10.8411 15.2362 11.1982L12.5762 13.8582C12.5762 13.8582 14.1081 24.225 24.3918 25.5075Z" fill="#B50000"/>
</svg>
