<svg width="43" height="42" viewBox="0 0 43 42" fill="none" xmlns="http://www.w3.org/2000/svg">
<path d="M21.25 36.7503C19.0396 34.8649 16.9908 32.7979 15.125 30.571C12.325 27.2268 9 22.2463 9 17.5003C8.99879 15.0765 9.71664 12.7068 11.0627 10.6911C12.4088 8.67539 14.3226 7.10434 16.5619 6.17673C18.8012 5.24912 21.2653 5.00667 23.6425 5.48004C26.0196 5.95342 28.2029 7.12135 29.916 8.83603C31.0566 9.97154 31.9606 11.322 32.5758 12.8092C33.191 14.2964 33.5051 15.8909 33.5 17.5003C33.5 22.2463 30.175 27.2268 27.375 30.571C25.5092 32.7979 23.4604 34.8649 21.25 36.7503ZM21.25 12.2503C19.8576 12.2503 18.5223 12.8034 17.5377 13.788C16.5531 14.7725 16 16.1079 16 17.5003C16 18.8927 16.5531 20.228 17.5377 21.2126C18.5223 22.1972 19.8576 22.7503 21.25 22.7503C22.6424 22.7503 23.9777 22.1972 24.9623 21.2126C25.9469 20.228 26.5 18.8927 26.5 17.5003C26.5 16.1079 25.9469 14.7725 24.9623 13.788C23.9777 12.8034 22.6424 12.2503 21.25 12.2503Z" fill="#B50000"/>
</svg>
